<?xml version="1.0" standalone="no"?>
<!DOCTYPE svg PUBLIC "-//W3C//DTD SVG 20010904//EN"
 "http://www.w3.org/TR/2001/REC-SVG-20010904/DTD/svg10.dtd">
<svg version="1.0" xmlns="http://www.w3.org/2000/svg"
 width="794.000000pt" height="790.000000pt" viewBox="0 0 794.000000 790.000000"
 preserveAspectRatio="xMidYMid meet">

<g transform="translate(0.000000,790.000000) scale(0.100000,-0.100000)"
fill="#000000" stroke="none">
<path d="M0 3950 l0 -3950 3970 0 3970 0 0 3950 0 3950 -3970 0 -3970 0 0
-3950z m4030 2455 l39 -25 -55 -117 c-31 -65 -61 -130 -66 -145 -5 -16 -13
-28 -16 -28 -11 1 -156 220 -150 226 14 13 184 112 196 113 7 1 30 -10 52 -24z
m336 -196 c143 -83 261 -153 262 -155 7 -5 -291 -545 -299 -542 -4 2 -85 115
-178 252 -207 302 -190 281 -206 259 -11 -15 -13 -15 -19 5 -10 29 1 47 20 31
11 -9 24 11 72 112 32 68 65 139 73 157 7 17 15 32 15 32 1 0 118 -68 260
-151z m-541 -43 l85 -124 -116 -249 c-64 -136 -130 -277 -146 -313 -17 -36
-57 -121 -89 -189 -33 -68 -59 -125 -59 -126 0 -2 -29 -65 -65 -140 -37 -78
-70 -134 -74 -129 -5 5 -137 166 -295 358 l-286 349 0 66 0 66 473 276 c259
153 475 277 479 278 4 1 46 -55 93 -123z m1101 -283 l254 -148 0 -388 0 -389
-42 -76 c-22 -43 -57 -106 -77 -142 -20 -36 -48 -86 -61 -112 -14 -27 -28 -48
-31 -48 -4 0 -67 88 -141 195 -73 107 -209 306 -302 441 l-169 246 39 72 c21
39 91 167 154 283 63 117 117 213 119 213 2 0 118 -66 257 -147z m-930 35 c28
-40 110 -160 183 -266 l132 -193 -212 -387 c-210 -384 -226 -413 -309 -566
l-44 -79 -28 34 c-16 19 -71 86 -123 149 -51 63 -117 143 -145 178 l-52 63
103 217 c56 119 135 287 174 372 40 85 98 209 129 275 32 66 74 155 93 198 20
42 39 77 42 77 4 0 30 -33 57 -72z m-1001 -643 c209 -256 322 -392 342 -415
12 -13 15 -13 23 0 12 20 35 -2 26 -25 -5 -14 -9 -15 -21 -5 -16 13 -19 7
-230 -445 -49 -104 -90 -192 -91 -194 -2 -2 -61 30 -131 70 l-128 74 -3 600
c-2 509 0 597 12 585 7 -8 98 -118 201 -245z m1347 168 c-9 -14 -10 -14 -16 5
-9 29 3 51 16 28 5 -10 5 -23 0 -33z m139 -233 c79 -116 215 -314 302 -440 86
-126 157 -234 157 -240 0 -6 -58 -117 -128 -246 l-129 -235 -211 -124 -212
-124 -93 112 c-295 356 -387 470 -387 480 0 7 552 1026 556 1027 1 0 66 -95
145 -210z m685 -878 c-8 -8 -18 -12 -23 -9 -5 3 -40 51 -78 106 -55 82 -71 99
-82 89 -18 -14 -36 2 -27 25 7 18 24 23 24 7 0 -33 29 8 107 153 l88 162 3
-259 c2 -214 0 -262 -12 -274z m-1734 410 c26 -31 101 -123 167 -204 67 -81
121 -151 121 -154 0 -6 -197 -371 -230 -425 l-16 -27 -184 109 c-102 59 -191
112 -199 117 -12 6 15 71 134 325 82 174 151 317 154 317 4 0 27 -26 53 -58z
m1611 -349 c32 -44 57 -86 57 -91 0 -8 -215 -139 -342 -209 -4 -2 10 27 31 64
21 37 70 128 110 201 40 74 76 130 80 125 4 -4 33 -45 64 -90z m-1279 8 c7
-11 -3 -41 -14 -41 -11 0 -21 30 -14 41 3 5 9 9 14 9 5 0 11 -4 14 -9z m172
-271 c92 -113 194 -236 225 -275 32 -38 56 -72 53 -76 -2 -4 -56 -37 -119 -74
l-114 -66 -228 132 c-125 72 -231 133 -235 135 -3 2 48 103 114 225 66 121
124 217 128 212 4 -4 83 -100 176 -213z m-376 -1261 l0 -110 53 3 52 3 3 108
3 107 39 0 39 0 3 -250 3 -250 -42 0 -42 0 -3 108 -3 107 -52 3 -53 3 0 -110
0 -111 -45 0 -45 0 0 250 0 250 45 0 45 0 0 -111z m550 89 c14 -16 20 -35 20
-70 l0 -48 -45 0 c-45 0 -45 0 -45 34 0 38 -22 53 -60 41 -19 -6 -21 -14 -18
-73 l3 -67 63 -6 c94 -9 102 -20 102 -144 0 -90 -2 -104 -21 -121 -25 -23
-131 -31 -183 -14 -38 12 -46 27 -49 96 -2 39 -2 39 40 42 l42 3 3 -38 c3 -36
5 -38 41 -41 l37 -3 0 75 0 76 -44 0 c-105 0 -131 35 -124 167 5 101 19 113
134 113 73 0 86 -3 104 -22z m357 14 c17 -11 33 -58 33 -98 0 -34 0 -34 -45
-34 -45 0 -45 0 -45 35 0 29 -4 36 -25 41 -47 12 -55 1 -55 -75 l0 -69 66 -4
c93 -6 104 -21 104 -143 0 -131 -8 -140 -129 -140 -110 0 -122 9 -129 89 l-4
56 46 0 46 0 0 -41 0 -40 38 3 37 3 3 71 3 71 -68 6 c-93 7 -103 20 -103 141
0 127 9 136 128 136 48 0 92 -4 99 -8z m-3459 -989 c3 -20 -1 -23 -27 -23 -23
0 -31 5 -31 18 0 25 10 33 35 30 12 -2 21 -12 23 -25z m1235 -36 c-1 -51 1
-57 15 -51 40 16 61 15 81 -5 19 -19 21 -33 21 -136 l0 -115 -30 0 -30 0 0
109 c0 92 -3 110 -17 115 -29 12 -37 -11 -34 -99 3 -105 -3 -125 -35 -125
l-24 0 0 179 c0 184 2 193 40 188 12 -2 15 -16 13 -60z m257 38 c0 -21 -5 -25
-30 -25 -25 0 -30 4 -30 25 0 21 5 25 30 25 25 0 30 -4 30 -25z m628 -163 l2
-182 -30 0 -30 0 0 179 c0 184 2 193 40 188 13 -2 15 -31 18 -185z m1792 163
c0 -21 -5 -25 -30 -25 -25 0 -30 4 -30 25 0 21 5 25 30 25 25 0 30 -4 30 -25z
m750 0 c0 -21 -5 -25 -30 -25 -22 0 -30 5 -30 18 0 25 9 32 37 32 18 0 23 -5
23 -25z m503 6 c6 -25 0 -31 -30 -31 -18 0 -23 5 -23 25 0 20 5 25 24 25 15 0
26 -7 29 -19z m142 -13 c3 -18 5 -100 3 -183 l-3 -150 -27 -3 -28 -3 0 179 c0
98 3 182 7 185 18 19 42 5 48 -25z m565 7 c0 -20 -5 -25 -25 -25 -20 0 -25 5
-25 25 0 20 5 25 25 25 20 0 25 -5 25 -25z m-6148 -77 l3 -73 38 -3 37 -3 0
75 0 76 30 0 30 0 0 -170 0 -170 -30 0 -30 0 0 75 0 75 -40 0 -40 0 0 -76 0
-75 -27 3 c-16 2 -27 6 -25 11 1 4 2 79 2 167 l0 160 25 0 c23 0 24 -3 27 -72z
m2756 60 c7 -7 12 -27 12 -45 0 -28 -3 -33 -24 -33 -18 0 -25 6 -28 23 -2 16
-11 23 -30 25 -27 3 -28 2 -28 -47 0 -50 1 -51 30 -51 16 0 41 -5 55 -12 24
-11 25 -15 25 -88 0 -77 0 -78 -30 -90 -39 -16 -110 -7 -127 16 -7 10 -13 30
-13 46 0 24 4 28 30 28 25 0 30 -4 30 -25 0 -21 5 -25 31 -25 l30 0 -3 53 -3
52 -44 3 c-59 4 -71 19 -71 87 0 85 9 95 83 95 36 0 68 -5 75 -12z m2036 -4
c3 -9 6 -29 6 -45 0 -24 -4 -29 -24 -29 -18 0 -25 6 -28 23 -2 16 -11 23 -30
25 -27 3 -28 2 -28 -46 l0 -49 46 -6 c25 -2 51 -10 56 -15 15 -15 14 -150 -1
-165 -17 -17 -124 -15 -144 2 -10 8 -17 28 -17 47 0 31 3 34 30 34 25 0 30 -4
30 -23 0 -31 5 -35 36 -29 23 4 25 8 22 56 l-3 51 -45 3 c-24 2 -50 8 -57 14
-17 14 -17 140 -1 156 7 7 40 12 79 12 52 0 68 -4 73 -16z m-766 -31 c2 -13
10 -23 18 -23 8 0 14 -9 14 -20 0 -11 -7 -20 -15 -20 -12 0 -15 -17 -15 -90 0
-73 3 -90 15 -90 10 0 15 -10 15 -26 0 -25 -2 -26 -32 -20 -49 9 -58 29 -58
128 0 70 -3 90 -15 94 -8 4 -15 15 -15 25 0 10 7 19 15 19 8 0 15 8 15 18 0
25 10 33 35 30 12 -2 21 -12 23 -25z m2272 2 c0 -18 5 -25 20 -25 13 0 20 -7
20 -19 0 -10 -9 -21 -20 -24 -18 -5 -20 -14 -20 -91 0 -79 2 -86 20 -86 15 0
20 -7 20 -25 0 -28 -22 -33 -65 -13 -24 11 -25 14 -25 110 0 78 -3 100 -15
104 -8 4 -15 15 -15 25 0 10 7 19 15 19 9 0 15 9 15 25 0 20 5 25 25 25 20 0
25 -5 25 -25z m-6020 -161 l0 -135 -27 3 -28 3 -3 110 c-4 136 1 155 33 155
l25 0 0 -136z m241 115 c5 -8 9 -40 9 -71 l0 -58 -55 0 -55 0 0 -40 c0 -36 2
-40 26 -40 17 0 28 6 31 20 3 13 14 20 29 20 19 0 24 -5 24 -25 0 -37 -40 -59
-97 -52 -65 7 -73 22 -73 134 0 81 3 96 21 114 18 18 30 21 76 17 32 -3 59
-11 64 -19z m149 5 c0 -14 2 -14 16 1 20 20 39 15 39 -10 0 -12 -9 -21 -25
-25 -25 -6 -25 -8 -28 -113 l-3 -107 -29 0 -30 0 0 135 0 135 30 0 c21 0 30
-5 30 -16z m208 4 c10 -10 15 -10 21 0 5 8 19 12 32 10 24 -3 24 -4 24 -133 0
-129 0 -130 -24 -133 -13 -2 -27 2 -31 8 -6 9 -13 9 -29 -2 -18 -11 -25 -11
-49 2 -26 15 -27 19 -30 110 -3 110 1 137 26 143 32 9 48 7 60 -5z m216 -4 c5
-14 7 -14 22 0 22 23 34 20 34 -8 0 -18 -6 -25 -22 -28 -22 -3 -23 -8 -28
-108 l-5 -105 -27 -3 -28 -3 0 135 0 136 24 0 c13 0 27 -7 30 -16z m270 0 c9
-8 16 -29 16 -45 0 -24 -4 -29 -24 -29 -18 0 -25 6 -28 23 -2 16 -10 22 -28
22 -24 0 -25 -2 -28 -79 -2 -44 -1 -85 2 -91 7 -20 56 -6 56 16 0 14 7 19 25
19 21 0 25 -5 25 -29 0 -53 -71 -78 -135 -49 -25 11 -25 13 -25 119 0 84 3
111 16 123 21 21 107 21 128 0z m406 -119 l0 -135 -30 0 -30 0 0 135 0 135 30
0 30 0 0 -135z m230 119 c5 -5 13 -24 16 -42 6 -31 5 -32 -25 -32 -24 0 -31 4
-31 19 0 26 -15 34 -40 21 -17 -9 -20 -21 -20 -84 0 -74 8 -93 40 -92 8 1 16
11 18 24 3 19 9 23 30 20 23 -3 27 -7 25 -32 -3 -39 -13 -47 -67 -53 -33 -4
-53 -1 -71 11 -24 16 -25 20 -25 119 0 104 4 119 30 130 21 9 109 2 120 -9z
m183 1 c13 -13 16 -13 21 1 4 9 15 14 28 12 22 -3 23 -7 26 -135 l3 -133 -30
0 c-16 0 -31 5 -33 11 -2 7 -12 7 -30 -2 -23 -10 -31 -9 -53 5 -24 16 -25 20
-25 119 0 56 4 107 8 113 16 25 64 30 85 9z m828 -6 c5 -8 9 -40 9 -71 l0 -58
-55 0 -55 0 0 -40 c0 -28 4 -40 14 -40 25 0 46 12 46 26 0 8 10 14 25 14 21 0
25 -5 25 -29 0 -36 -42 -56 -102 -48 -60 8 -68 25 -68 134 0 81 3 96 21 114
18 18 30 21 76 17 32 -3 59 -11 64 -19z m149 5 c0 -14 1 -14 16 0 19 20 44 20
69 2 16 -12 22 -12 42 1 25 16 72 11 85 -10 4 -7 8 -65 8 -129 l0 -118 -25 0
-25 0 0 103 c0 113 -7 133 -39 122 -20 -6 -21 -13 -21 -116 l0 -109 -30 0 -30
0 0 116 c0 102 -2 115 -16 110 -9 -3 -20 -6 -25 -6 -5 0 -9 -49 -9 -110 l0
-110 -30 0 -30 0 0 135 0 135 30 0 c21 0 30 -5 30 -16z m394 0 c15 -14 16 -14
16 0 0 11 9 16 30 16 l30 0 0 -135 0 -135 -30 0 c-16 0 -30 5 -30 10 0 7 -6 7
-19 0 -29 -15 -49 -12 -71 10 -17 17 -20 33 -20 118 0 53 4 102 8 108 17 26
64 30 86 8z m216 6 c0 -7 7 -7 21 0 23 13 70 5 81 -13 4 -7 8 -65 8 -129 l0
-118 -25 0 c-25 0 -25 0 -25 99 0 119 -3 130 -36 123 -24 -4 -24 -6 -24 -114
l0 -109 -27 3 -28 3 -3 119 c-1 66 0 126 2 133 6 15 56 18 56 3z m420 -125 l0
-135 -30 0 -30 0 0 135 0 135 30 0 30 0 0 -135z m217 127 c12 -7 33 -54 33
-73 0 -5 -13 -9 -30 -9 -23 0 -30 5 -30 19 0 22 -37 38 -51 24 -6 -6 -9 -45
-7 -89 3 -78 3 -79 31 -82 22 -3 27 1 27 18 0 17 5 21 28 18 24 -3 27 -7 24
-33 -4 -40 -12 -46 -66 -52 -33 -4 -53 -1 -71 11 -24 16 -25 20 -25 119 0 104
4 120 30 130 22 8 93 8 107 -1z m533 -128 l0 -135 -27 3 -28 3 -3 119 c-1 66
0 126 2 133 3 7 17 13 31 13 l25 0 0 -136z m142 125 c2 -7 11 -7 30 1 21 10
32 10 55 -2 26 -13 32 -13 51 0 30 20 70 8 82 -24 6 -14 10 -72 10 -130 l0
-104 -30 0 -30 0 0 109 c0 104 -1 109 -22 114 -35 10 -36 6 -37 -135 -1 -87
-1 -88 -26 -88 l-25 0 0 109 c0 113 -4 123 -42 113 -16 -4 -18 -18 -18 -113
l0 -109 -25 0 -25 0 0 135 0 135 24 0 c13 0 26 -5 28 -11z m358 -124 l0 -135
-25 0 -25 0 0 135 0 135 25 0 25 0 0 -135z m313 124 c16 -9 22 -9 25 0 2 6 15
11 28 11 l24 0 0 -135 0 -135 -24 0 c-13 0 -26 5 -28 11 -3 9 -10 8 -24 -1
-15 -9 -29 -10 -50 -3 l-29 10 -3 114 c-2 98 0 115 15 126 21 16 38 16 66 2z
m221 -5 c5 -14 7 -14 22 0 22 23 34 20 34 -8 0 -18 -6 -25 -22 -28 -22 -3 -23
-8 -28 -108 l-5 -105 -27 -3 -28 -3 0 135 0 136 24 0 c13 0 27 -7 30 -16z
m176 -119 l0 -135 -25 0 -25 0 0 135 0 135 25 0 25 0 0 -135z m311 37 c9 -51
18 -95 21 -98 3 -2 14 39 24 93 17 87 21 98 42 101 29 4 29 -7 -4 -160 -35
-164 -42 -178 -101 -178 -26 0 -33 4 -33 20 0 15 7 20 25 20 30 0 44 26 22 43
-13 10 -67 209 -67 246 0 8 10 11 27 9 26 -3 28 -7 44 -96z"/>
<path d="M1148 1835 c-5 -43 -3 -45 34 -45 28 0 29 2 26 38 -3 32 -7 37 -29
40 -24 3 -27 -1 -31 -33z"/>
<path d="M1581 1857 c-6 -6 -11 -46 -11 -89 l0 -78 30 0 30 0 0 84 c0 74 -2
84 -19 89 -11 2 -24 0 -30 -6z"/>
<path d="M2882 1858 c-7 -7 -12 -41 -12 -85 0 -59 3 -74 18 -81 35 -18 42 -4
42 83 0 66 -3 84 -16 89 -20 8 -18 8 -32 -6z"/>
<path d="M3638 1835 c-5 -43 -3 -45 34 -45 28 0 29 2 26 38 -3 32 -7 37 -29
40 -24 3 -27 -1 -31 -33z"/>
<path d="M4263 1863 c-13 -5 -19 -163 -7 -175 3 -3 14 -4 25 -1 17 5 19 15 19
88 0 83 -7 98 -37 88z"/>
<path d="M6457 1864 c-4 -4 -7 -44 -7 -90 0 -69 3 -82 18 -86 37 -10 42 1 42
88 0 46 -4 84 -9 84 -5 0 -16 2 -23 5 -8 3 -17 2 -21 -1z"/>
</g>
</svg>
